<?xml version="1.0" encoding="UTF-8" standalone="no"?>
<!-- Created with Inkscape (http://www.inkscape.org/) -->

<svg
   width="210mm"
   height="107mm"
   viewBox="0 0 210 107"
   version="1.1"
   id="svg1"
   inkscape:version="1.4.2 (f4327f4, 2025-05-13)"
   sodipodi:docname="logo.svg"
   xmlns:inkscape="http://www.inkscape.org/namespaces/inkscape"
   xmlns:sodipodi="http://sodipodi.sourceforge.net/DTD/sodipodi-0.dtd"
   xmlns:xlink="http://www.w3.org/1999/xlink"
   xmlns="http://www.w3.org/2000/svg"
   xmlns:svg="http://www.w3.org/2000/svg">
  <sodipodi:namedview
     id="namedview1"
     pagecolor="#ffffff"
     bordercolor="#000000"
     borderopacity="0.25"
     inkscape:showpageshadow="2"
     inkscape:pageopacity="0.0"
     inkscape:pagecheckerboard="0"
     inkscape:deskcolor="#d1d1d1"
     inkscape:document-units="mm"
     inkscape:zoom="0.71891835"
     inkscape:cx="246.89869"
     inkscape:cy="558.47789"
     inkscape:window-width="1920"
     inkscape:window-height="1009"
     inkscape:window-x="1912"
     inkscape:window-y="-6"
     inkscape:window-maximized="1"
     inkscape:current-layer="layer1" />
  <defs
     id="defs1">
    <linearGradient
       id="linearGradient10"
       inkscape:collect="always">
      <stop
         style="stop-color:#1600ff;stop-opacity:1;"
         offset="0.15025906"
         id="stop11" />
      <stop
         style="stop-color:#1600ff;stop-opacity:0;"
         offset="1"
         id="stop12" />
    </linearGradient>
    <rect
       x="60.73547"
       y="124.91344"
       width="58.276543"
       height="14.26177"
       id="rect4" />
    <rect
       x="116.55309"
       y="127.86415"
       width="40.326385"
       height="26.310507"
       id="rect3" />
    <rect
       x="58.421101"
       y="123.79709"
       width="34.774464"
       height="75.112839"
       id="rect2" />
    <rect
       x="61.203056"
       y="114.06024"
       width="670.45166"
       height="150.22568"
       id="rect1" />
    <linearGradient
       inkscape:collect="always"
       xlink:href="#linearGradient10"
       id="linearGradient12"
       x1="93.544838"
       y1="179.42123"
       x2="133.75136"
       y2="68.954742"
       gradientUnits="userSpaceOnUse"
       gradientTransform="matrix(1.098032,0,0,1.7160107,-20.932674,-169.42361)" />
  </defs>
  <g
     inkscape:label="Layer 1"
     inkscape:groupmode="layer"
     id="layer1">
    <path
       style="font-weight:bold;font-size:26.6667px;font-family:Arial;-inkscape-font-specification:'Arial Bold';white-space:pre;fill:url(#linearGradient12);stroke-width:1.37267"
       d="M 48.343423,68.054067 V 35.297876 h 6.333709 l 3.803084,22.343918 3.760191,-22.343918 h 6.348007 V 68.054067 H 64.656653 V 42.269186 L 60.496137,68.054067 H 56.421403 L 52.275184,42.269186 V 68.054067 Z M 72.763227,41.107293 v -5.809417 h 4.017541 v 5.809417 z m 0,26.946774 V 44.324813 h 4.017541 V 68.054067 Z M 94.137708,51.340809 90.177348,52.458 q -0.20016,-1.854543 -0.91503,-2.792979 -0.70056,-0.938452 -1.83005,-0.938452 -1.50122,0 -2.40195,1.631103 -0.88643,1.60876 -0.88643,5.407235 0,4.223 0.90073,5.965832 0.91503,1.742815 2.44484,1.742815 1.14378,0 1.87295,-1.005479 0.72916,-1.027822 1.0294,-3.50799 l 3.94606,1.050164 q -0.61479,4.245342 -2.35906,6.412698 -1.74427,2.167374 -4.67522,2.167374 -3.33127,0 -5.3186,-3.284565 -1.97303,-3.284548 -1.97303,-9.093965 0,-5.876462 1.98733,-9.138667 1.98733,-3.284564 5.37579,-3.284564 2.77367,0 4.40357,1.876886 1.64419,1.854562 2.35906,5.675363 z m 10.008122,-7.015996 v 5.005037 h -2.74509 v 9.563208 q 0,2.904709 0.0715,3.396277 0.0858,0.469208 0.35743,0.782037 0.28595,0.312812 0.68627,0.312812 0.55759,0 1.6156,-0.603281 l 0.34313,4.870965 q -1.40114,0.938453 -3.174,0.938453 -1.0866,0 -1.958732,-0.558596 -0.87214,-0.580956 -1.28677,-1.474706 -0.40032,-0.916109 -0.55759,-2.457825 -0.12868,-1.094866 -0.12868,-4.424098 V 49.32985 h -1.84435 v -5.005037 h 1.84435 v -4.714568 l 4.031842,-3.664403 v 8.378971 z m 11.58081,16.177005 4.00325,1.050164 q -0.77205,3.440962 -2.44483,5.250821 -1.6585,1.787518 -4.16052,1.787518 -3.96036,0 -5.8619,-4.04426 -1.50122,-3.239863 -1.50122,-8.177873 0,-5.898786 1.97303,-9.228036 1.97303,-3.351592 4.98975,-3.351592 3.38848,0 5.3472,3.508006 1.95873,3.485647 1.87294,10.702725 h -10.06529 q 0.0429,2.792996 0.97221,4.357071 0.92933,1.541733 2.31616,1.541733 0.94363,0 1.58701,-0.80438 0.64337,-0.80438 0.97221,-2.591897 z m 0.22877,-6.345671 q -0.0429,-2.725968 -0.90075,-4.133629 -0.85783,-1.430003 -2.0874,-1.430003 -1.31535,0 -2.17319,1.497031 -0.85784,1.497047 -0.84354,4.066601 z m 20.50233,-2.815338 -3.96035,1.117191 q -0.20016,-1.854543 -0.91504,-2.792979 -0.70056,-0.938452 -1.83005,-0.938452 -1.50121,0 -2.40195,1.631103 -0.88643,1.60876 -0.88643,5.407235 0,4.223 0.90072,5.965832 0.91504,1.742815 2.44485,1.742815 1.14379,0 1.87295,-1.005479 0.72916,-1.027822 1.0294,-3.50799 l 3.94607,1.050164 q -0.61479,4.245342 -2.35907,6.412698 -1.74427,2.167374 -4.67521,2.167374 -3.33128,0 -5.3186,-3.284565 -1.97303,-3.284548 -1.97303,-9.093965 0,-5.876462 1.98733,-9.138667 1.98732,-3.284564 5.37578,-3.284564 2.77369,0 4.40357,1.876886 1.6442,1.854562 2.35906,5.675363 z m 7.04857,-16.042933 v 12.043375 q 1.94444,-3.552691 4.64663,-3.552691 1.38684,0 2.50203,0.80438 1.11518,0.80438 1.67279,2.055643 0.57188,1.251264 0.77204,2.770654 0.21448,1.519391 0.21448,4.714568 v 13.920262 h -4.01755 V 55.519123 q 0,-3.731431 -0.22877,-4.73691 -0.22875,-1.005479 -0.81493,-1.586418 -0.5719,-0.60328 -1.44403,-0.60328 -1.00082,0 -1.78717,0.759678 -0.78635,0.759695 -1.15808,2.301428 -0.35744,1.519389 -0.35744,4.513468 v 11.886978 h -4.01753 V 35.297876 Z"
       id="text1"
       aria-label="Mictech" />
    <text
       xml:space="preserve"
       transform="scale(0.26458333)"
       id="text2"
       style="text-align:start;writing-mode:lr-tb;direction:ltr;white-space:pre;shape-inside:url(#rect2);display:inline;fill:#ff6600" />
    <text
       xml:space="preserve"
       transform="scale(0.26458333)"
       id="text3"
       style="text-align:start;writing-mode:lr-tb;direction:ltr;white-space:pre;shape-inside:url(#rect3);display:inline;fill:#ff6600" />
    <text
       xml:space="preserve"
       transform="scale(0.26458333)"
       id="text4"
       style="text-align:start;writing-mode:lr-tb;direction:ltr;white-space:pre;shape-inside:url(#rect4);display:inline;fill:#ff6600" />
  </g>
</svg>
